Coordinates
version=1
nRows=12
nColumns=34
inDegrees=yes

Units are S.I. units (second, meters, Newtons, ...)
If the header above contains a line with 'inDegrees', this indicates whether rotational values are in degrees (yes) or radians (no).

endheader
time	pelvis_tilt	pelvis_list	pelvis_rotation	pelvis_tx	pelvis_ty	pelvis_tz	hip_flexion_r	hip_adduction_r	hip_rotation_r	knee_angle_r	ankle_angle_r	subtalar_angle_r	mtp_angle_r	hip_flexion_l	hip_adduction_l	hip_rotation_l	knee_angle_l	ankle_angle_l	subtalar_angle_l	mtp_angle_l	lumbar_extension	lumbar_bending	lumbar_rotation	arm_flex_r	arm_add_r	arm_rot_r	elbow_flex_r	pro_sup_r	arm_flex_l	arm_add_l	arm_rot_l	elbow_flex_l	pro_sup_l
      0.00000000	      1.22404679	     -0.19269443	      2.30203583	      0.32040656	      1.61112770	     -0.13795580	     -4.37269013	     -0.29643340	     -3.02511868	      0.15193999	      0.21633659	    -12.68900030	      0.00000000	     -0.81393575	      1.27735153	     -0.89230327	      8.32924754	     -1.79424689	    -18.09645797	      0.00000000	     -7.55906201	      6.47292678	     -1.30133380	     -3.42571707	     -8.25391292	      6.85844121	     24.44047875	     73.42388079	    -32.63159485	   -142.28204256	   -130.70621534	     51.33587022	     69.13776923
      0.01666670	     -2.83610480	     -0.63205217	      1.47444168	      0.33430180	      1.60472267	     -0.13473274	     -0.49618025	      0.15598683	     -3.34191746	      0.00000000	      0.36871280	     -7.30760323	      0.00000000	      2.42150250	      1.03468216	     -2.46250052	      6.84052559	     -2.71332658	    -14.89560643	      0.00000000	     -1.92886497	      6.10240262	     -3.74295906	     -2.67579674	     -8.72791693	      4.80086858	     26.12867124	     74.43799311	    -27.21609255	   -144.93266143	   -125.30193755	     38.53412198	     69.47899879
      0.03333330	     -4.05046339	     -0.41278931	      0.77001903	      0.32346329	      1.59960014	     -0.13718284	      0.96367218	     -0.02950348	     -4.01893147	      0.00000000	      1.08756917	     -5.96028144	      0.00000000	      4.12128186	      1.52294439	     -3.87532697	      7.09133099	     -2.25112643	    -13.68841777	      0.00000000	     -0.76519283	      5.42556617	     -2.64377571	     -2.53257253	     -8.24405692	     -1.91198607	     28.68838144	     75.33445016	    -22.64220786	   -147.11778256	   -114.16495149	     33.44317888	     72.18762756
      0.05000000	     -5.20697625	     -0.07212428	      0.32716075	      0.32345212	      1.60085876	     -0.13655117	      2.47558752	     -0.35212749	     -4.15440029	      0.00000000	      1.65372697	     -4.67904184	      0.00000000	      5.11709648	      2.02743957	     -4.32704044	      6.30002245	     -2.70083071	    -13.65671665	      0.00000000	      0.92122734	      4.62145320	     -1.81207543	     -3.07153937	     -7.65918431	     -3.24992299	     29.24464657	     75.91308796	    -22.56739363	   -148.37281541	   -112.91559112	     33.55113185	     72.70779307
      0.06666670	     -5.31640233	      0.10173344	     -0.08395132	      0.32353575	      1.60040447	     -0.13609323	      2.70950569	     -0.48216661	     -3.92509796	      0.00000000	      2.04024616	     -4.54043271	      0.00000000	      5.08832388	      2.29170600	     -4.83582324	      5.75872888	     -2.84021901	    -13.23055434	      0.00000000	      0.93327277	      4.45241718	     -0.33406498	     -4.08248379	     -6.33305775	    -10.43248816	     30.49727288	     80.24643103	    -21.94437842	   -149.98156155	   -115.97741908	     33.40939655	     73.52471950
      0.08333330	     -5.55007190	      0.16134161	     -0.33420018	      0.32381960	      1.59994930	     -0.13614796	      2.98614710	     -0.53035304	     -3.72818810	      0.00000000	      1.84791043	     -4.75343260	      0.00000000	      5.35855340	      2.47334424	     -4.93345425	      5.48077546	     -3.40126988	    -13.97301698	      0.00000000	      1.22120688	      4.61084838	     -0.32558952	     -4.54491154	     -6.15446853	    -10.42695247	     30.75437491	     85.90852162	    -21.72186841	   -150.79828605	   -123.83544922	     34.80947138	     73.25025149
      0.10000000	     -5.98305832	      0.23435114	     -0.54801817	      0.32431015	      1.59590737	     -0.13642230	      3.42449781	     -0.61027962	     -3.55349359	      0.00000000	      1.87038429	     -4.80864887	      0.00000000	      5.91544661	      2.58137470	     -5.54457929	      5.49778063	     -3.14341188	    -13.72146320	      0.00000000	      1.61418541	      4.77054757	      0.41263140	     -5.72550049	     -5.38651630	    -15.80256498	     32.48610031	     94.34236226	    -22.04461327	   -151.99008761	   -130.99979931	     35.33877278	     73.61458753
      0.11666670	     -6.29878898	      0.22963151	     -0.56897763	      0.32456771	      1.59582165	     -0.13670720	      3.69529705	     -0.62414646	     -3.60683091	      0.00000000	      1.75248103	     -4.90213454	      0.00000000	      6.30128441	      2.60865893	     -5.74254460	      5.60545472	     -3.41785460	    -14.11474126	      0.00000000	      2.00180094	      4.96549768	     -0.43858010	     -5.56500287	     -5.53284321	    -15.57772133	     32.70072885	     95.05478731	    -20.83185192	   -152.08381280	   -131.85531786	     35.28662923	     73.65142887
      0.13333330	     -6.48864878	      0.18273503	     -0.66975640	      0.32486778	      1.59604024	     -0.13684581	      3.87019822	     -0.60147698	     -3.60162148	      0.00000000	      1.64196882	     -4.76110544	      0.00000000	      6.52919926	      2.55450418	     -5.98402883	      5.66577786	     -3.43972345	    -14.11219951	      0.00000000	      2.36861369	      5.12095392	     -0.68949671	     -5.18307437	     -5.99632396	    -14.64555882	     32.41855243	    105.15107182	    -21.69287883	   -152.76896486	   -136.95313067	     35.64202127	     75.13988988
      0.15000000	     -6.74474303	      0.18499735	     -1.00769556	      0.32444886	      1.59925790	     -0.13683009	      4.12010664	     -0.58825692	     -3.28635060	      0.00000000	      1.55120573	     -4.64413615	      0.00000000	      6.85224555	      2.51653229	     -6.20293963	      5.67990822	     -3.53856794	    -14.33362807	      0.00000000	      2.46777935	      5.24246951	     -0.81624853	     -5.12451438	     -6.21770989	    -14.77188212	     32.71533605	    105.31078050	    -21.05021530	   -152.80837491	   -137.29682592	     35.86351673	     75.15648270
      0.16666670	     -6.92103442	      0.13879784	     -1.06738882	      0.32462732	      1.59905863	     -0.13688322	      4.28815846	     -0.54618131	     -3.18741380	      0.00000000	      1.31430780	     -4.68420937	      0.00000000	      7.04069286	      2.45034242	     -6.23234241	      5.53255436	     -3.71466851	    -14.36688913	      0.00000000	      2.59036860	      5.47422095	     -0.99160433	     -5.19788436	     -6.47421712	    -14.85675673	     32.91936519	    105.49148952	    -20.65501493	   -152.83831731	   -137.70763405	     35.86698244	     75.15882330
      0.18333330	     -6.92424136	      0.17264881	     -1.06450219	      0.32473221	      1.59893323	     -0.13707870	      4.25403448	     -0.59072047	     -3.17292390	      0.00000000	      1.29133877	     -4.67683405	      0.00000000	      7.08153584	      2.44925077	     -6.24335260	      5.52420509	     -3.73679777	    -14.36770525	      0.00000000	      2.62531998	      5.54440417	     -0.98187192	     -5.16140679	     -6.47644079	    -14.85523000	     32.94739770	    105.50112593	    -20.63337953	   -152.86813551	   -137.72765454	     35.86600006	     75.15879813
